# xmcd CD database file
#
# Track frame offsets:
#	150
#	37446
#	75031
#	109664
#	157280
#	173427
#	198226
#	244134
#	270481
#
# Disc length: 3851 seconds
#
# Revision: 0
# Processed by: cddbd v1.5.2PL0 Copyright (c) Steve Scherf et al.
# Submitted via: CDex 1.51
#
DISCID=6d0f0909
DTITLE=Lorenz Raab - XYBand
DYEAR=2005
DGENRE=Jazz
TTITLE0=Apelilia
TTITLE1=Blue Silk
TTITLE2=Niner
TTITLE3=Red Apple
TTITLE4=Watch Them Sleeping
TTITLE5=This
TTITLE6=Them Three Waiting
TTITLE7=Achim
TTITLE8=Eleni
EXTD=YEAR: 2005
EXTT0=
EXTT1=
EXTT2=
EXTT3=
EXTT4=
EXTT5=
EXTT6=
EXTT7=
EXTT8=
PLAYORDER=
